<?xml version="1.0" encoding="UTF-8"?>
<svg fill="#283244" version="1.1" viewBox="0 0 700 600" xmlns="http://www.w3.org/2000/svg" xmlns:xlink="http://www.w3.org/1999/xlink">
 <g>
  <path d="m107.9 199.46c-5.1133 2.9844-9.832 6.6055-14.035 10.773-20.195 20.129-21.059 45.781-22.258 81.312-1.1992 35.734-2.0469 61.555 16.516 81.785 8.3477 9.6445 19.59 16.328 32.051 19.051 2.5312 0.55469 5.1523-0.41797 6.7031-2.4922 1.5547-2.0703 1.75-4.8594 0.50781-7.1328-17.055-29.766-26.098-63.445-26.25-97.754 0.019531-26.59 5.5039-52.895 16.113-77.281 1.0703-2.6016 0.37891-5.5977-1.7305-7.4609-2.1094-1.8633-5.168-2.1836-7.6172-0.80078z"/>
  <path d="m572.61 382.75c-1.2422 2.2734-1.0469 5.0625 0.50781 7.1328 1.5508 2.0742 4.1719 3.0469 6.7031 2.4922 12.461-2.7227 23.703-9.4062 32.051-19.051 18.582-20.23 17.715-46.051 16.516-81.785-1.1992-35.531-2.0625-61.18-22.254-81.309l-0.003907-0.003907c-4.2031-4.168-8.9219-7.7891-14.035-10.773-2.4492-1.3828-5.5039-1.0586-7.6133 0.80469-2.1055 1.8633-2.8008 4.8594-1.7305 7.457 10.605 24.387 16.082 50.688 16.102 77.277-0.14844 34.309-9.1914 67.988-26.242 97.758z"/>
  <path d="m265.35 476.91c-7.0703 10.523-14.883 20.531-23.375 29.945-4.9805 4.9609-8.1055 11.484-8.8438 18.473-0.73828 6.9922 0.95703 14.023 4.793 19.91 3.4219 5.5312 8.5547 9.7891 14.617 12.133 6.0664 2.3398 12.73 2.6367 18.977 0.84375 45.645-12.117 87.059-36.609 119.67-70.77 112.88-17.324 194.55-102.14 194.55-202.45 0-111.45-102.18-202.4-229.11-205.48v-23.453c9.1172-2.1875 16.57-8.7227 19.926-17.477s2.1797-18.602-3.1406-26.32c-5.3203-7.7188-14.105-12.316-23.48-12.297-9.375 0.023438-18.137 4.6641-23.422 12.406-5.2852 7.7461-6.4141 17.594-3.0156 26.332 3.3945 8.7383 10.879 15.242 20.008 17.387v23.418c-126.98 3.0234-229.23 94-229.23 205.48-0.003907 85.277 60.371 161.5 151.07 191.92zm84.652-45.355c-5.2227 0-10.23-2.0742-13.922-5.7656-3.6914-3.6914-5.7656-8.6992-5.7656-13.922s2.0742-10.23 5.7656-13.922c3.6914-3.6914 8.6992-5.7656 13.922-5.7656s10.23 2.0742 13.922 5.7656c3.6914 3.6914 5.7656 8.6992 5.7656 13.922s-2.0742 10.23-5.7656 13.922c-3.6914 3.6914-8.6992 5.7656-13.922 5.7656zm0-312.81c107.96 0 184.79 93.758 173.43 200.12-2.0117 19.469-11.152 37.504-25.664 50.633-14.512 13.133-33.367 20.434-52.938 20.496-47.418-0.13281-47.418-26.465-94.828-26.465s-47.41 26.332-94.828 26.465c-19.57-0.0625-38.426-7.3633-52.938-20.496-14.512-13.129-23.652-31.164-25.664-50.633-11.363-106.36 65.465-200.12 173.43-200.12z"/>
  <path d="m305.02 303.19c11.645 12.555 27.988 19.688 45.109 19.688 17.117 0 33.465-7.1328 45.105-19.688 4.7891-4.9844 7.4453-11.641 7.4023-18.551-0.039063-6.9102-2.7734-13.535-7.6211-18.461-5.0391-4.75-11.707-7.3789-18.629-7.3438-6.9219 0.03125-13.566 2.7227-18.559 7.5195-1.8867 2.3672-4.6797 3.8438-7.6992 4.0664-2.9766-0.30078-5.7227-1.7422-7.6562-4.0234-4.9727-4.8281-11.613-7.5469-18.543-7.5977-6.9297-0.046875-13.609 2.5781-18.645 7.3359-4.8633 4.9219-7.6133 11.551-7.6641 18.473-0.046875 6.9219 2.6055 13.59 7.3984 18.582z"/>
  <path d="m424.29 265.3c7.0547-0.14062 13.77-3.0508 18.695-8.1016 4.9297-5.0508 7.6719-11.836 7.6406-18.895-0.085938-7.3047-0.085938-21.832 0-29.094 0.050781-7.0547-2.6797-13.852-7.6016-18.91-4.918-5.0625-11.637-7.9805-18.691-8.125-6.9375 0.066407-13.57 2.8555-18.473 7.7617-4.9023 4.9102-7.6797 11.551-7.7344 18.488v30.625c0.039062 6.9336 2.8047 13.574 7.6992 18.488 4.8945 4.9141 11.527 7.6992 18.465 7.7617z"/>
  <path d="m275.67 265.3c6.9375-0.066406 13.57-2.8555 18.473-7.7656s7.6797-11.547 7.7344-18.484v-30.625c-0.054688-6.9375-2.832-13.578-7.7344-18.488-4.9023-4.9062-11.535-7.6953-18.473-7.7617-7.0547 0.14453-13.773 3.0625-18.691 8.125-4.9219 5.0586-7.6523 11.855-7.6016 18.91 0.085938 7.2617 0.085938 21.789 0 29.094-0.042969 7.0547 2.6914 13.84 7.6133 18.891 4.918 5.0508 11.629 7.9609 18.68 8.1055z"/>
  <use x="70" y="625.625" xlink:href="#v"/>
  <use x="86.054688" y="625.625" xlink:href="#d"/>
  <use x="96.839844" y="625.625" xlink:href="#b"/>
  <use x="111.679687" y="625.625" xlink:href="#k"/>
  <use x="126.4375" y="625.625" xlink:href="#c"/>
  <use x="136.894531" y="625.625" xlink:href="#b"/>
  <use x="151.730469" y="625.625" xlink:href="#j"/>
  <use x="175.007812" y="625.625" xlink:href="#i"/>
  <use x="190.664062" y="625.625" xlink:href="#h"/>
  <use x="212.539062" y="625.625" xlink:href="#g"/>
  <use x="227.484375" y="625.625" xlink:href="#u"/>
  <use x="234.980469" y="625.625" xlink:href="#a"/>
  <use x="250.007812" y="625.625" xlink:href="#t"/>
  <use x="270.21875" y="625.625" xlink:href="#s"/>
  <use x="277.714844" y="625.625" xlink:href="#f"/>
  <use x="290.683594" y="625.625" xlink:href="#a"/>
  <use x="305.710938" y="625.625" xlink:href="#e"/>
  <use x="70" y="647.5" xlink:href="#r"/>
  <use x="79.515625" y="647.5" xlink:href="#d"/>
  <use x="90.304688" y="647.5" xlink:href="#a"/>
  <use x="105.332031" y="647.5" xlink:href="#q"/>
  <use x="135.742188" y="647.5" xlink:href="#c"/>
  <use x="146.199219" y="647.5" xlink:href="#p"/>
  <use x="161.773438" y="647.5" xlink:href="#b"/>
  <use x="184.222656" y="647.5" xlink:href="#o"/>
  <use x="202.53125" y="647.5" xlink:href="#a"/>
  <use x="217.558594" y="647.5" xlink:href="#n"/>
  <use x="233.132812" y="647.5" xlink:href="#e"/>
  <use x="256.320312" y="647.5" xlink:href="#m"/>
  <use x="272.355469" y="647.5" xlink:href="#d"/>
  <use x="283.140625" y="647.5" xlink:href="#a"/>
  <use x="298.171875" y="647.5" xlink:href="#l"/>
  <use x="305.667969" y="647.5" xlink:href="#b"/>
  <use x="320.503906" y="647.5" xlink:href="#f"/>
  <use x="333.472656" y="647.5" xlink:href="#c"/>
 </g>
</svg>
